<?xml version="1.0" encoding="UTF-8" standalone="no"?>
<!-- Created with Inkscape (http://www.inkscape.org/) -->

<svg
   xmlns:dc="http://purl.org/dc/elements/1.1/"
   xmlns:cc="http://creativecommons.org/ns#"
   xmlns:rdf="http://www.w3.org/1999/02/22-rdf-syntax-ns#"
   xmlns:svg="http://www.w3.org/2000/svg"
   xmlns="http://www.w3.org/2000/svg"
   xmlns:sodipodi="http://sodipodi.sourceforge.net/DTD/sodipodi-0.dtd"
   xmlns:inkscape="http://www.inkscape.org/namespaces/inkscape"
   width="251.7466"
   height="84.542686"
   viewBox="0 0 66.607955 22.368584"
   version="1.1"
   id="svg35855"
   inkscape:version="0.92.0 r15299"
   sodipodi:docname="kotak mutual fund.svg">
  <defs
     id="defs35849" />
  <sodipodi:namedview
     id="base"
     pagecolor="#ffffff"
     bordercolor="#666666"
     borderopacity="1.0"
     inkscape:pageopacity="0.0"
     inkscape:pageshadow="2"
     inkscape:zoom="3.5916404"
     inkscape:cx="124.8733"
     inkscape:cy="41.271345"
     inkscape:document-units="mm"
     inkscape:current-layer="layer1"
     showgrid="false"
     fit-margin-top="0"
     fit-margin-left="0"
     fit-margin-right="0"
     fit-margin-bottom="0"
     units="px"
     inkscape:window-width="1280"
     inkscape:window-height="744"
     inkscape:window-x="-4"
     inkscape:window-y="-4"
     inkscape:window-maximized="1" />
  <metadata
     id="metadata35852">
    <rdf:RDF>
      <cc:Work
         rdf:about="">
        <dc:format>image/svg+xml</dc:format>
        <dc:type
           rdf:resource="http://purl.org/dc/dcmitype/StillImage" />
        <dc:title></dc:title>
      </cc:Work>
    </rdf:RDF>
  </metadata>
  <g
     inkscape:label="Layer 1"
     inkscape:groupmode="layer"
     id="layer1"
     transform="translate(-103.82487,-145.8338)">
    <g
       id="g35952"
       transform="translate(0.26458193,-0.26457991)">
      <path
         inkscape:connector-curvature="0"
         id="path33079"
         style="fill:#ed3338;fill-opacity:1;fill-rule:evenodd;stroke:none;stroke-width:0.35277778"
         d="m 142.88938,156.84999 c -1.1991,0 -1.69051,-0.99731 -1.69051,-2.11032 0,-1.12712 0.49141,-2.12478 1.69051,-2.12478 1.1998,0 1.69051,0.99766 1.69051,2.12478 0,1.11301 -0.49071,2.11032 -1.69051,2.11032 z m 0,1.82033 c 2.48531,0 4.37761,-1.44568 4.37761,-3.93065 0,-2.49943 -1.8923,-3.94476 -4.37761,-3.94476 -2.48568,0 -4.37868,1.44533 -4.37868,3.94476 0,2.48497 1.893,3.93065 4.37868,3.93065" />
      <path
         inkscape:connector-curvature="0"
         id="path33081"
         style="fill:#ed3338;fill-opacity:1;fill-rule:evenodd;stroke:none;stroke-width:0.35277778"
         d="m 147.02958,152.78881 h 1.48801 v 3.06387 c 0,1.79212 0.56445,2.81764 2.89031,2.81764 0.65053,0 1.14229,-0.0871 1.63301,-0.14429 l -0.0857,-1.69086 c -0.26176,0.0437 -0.53623,0.1009 -0.79552,0.1009 -0.82303,0 -1.04034,-0.46285 -1.04034,-1.37302 v -2.77424 h 1.82138 v -1.82069 h -1.82138 l -0.001,-2.60385 -2.55659,0.91299 v 1.69086 h -1.53211 z" />
      <path
         inkscape:connector-curvature="0"
         id="path33083"
         style="fill:#ed3338;fill-opacity:1;fill-rule:evenodd;stroke:none;stroke-width:0.35277778"
         d="m 162.04239,158.49711 h 2.60138 v -3.72886 h 0.0289 l 2.08068,3.72886 h 3.15031 l -2.8321,-4.07494 2.61479,-3.45405 h -2.84621 l -2.16748,3.16442 h -0.0289 v -5.75874 l -2.60138,0.90099 z" />
      <path
         inkscape:connector-curvature="0"
         id="path33085"
         style="fill:#ed3338;fill-opacity:1;fill-rule:evenodd;stroke:none;stroke-width:0.35277778"
         d="m 131.58531,158.49711 h 2.60174 v -3.72886 h 0.0275 l 2.08174,3.72886 h 3.14996 l -2.83139,-4.07494 2.61479,-3.45405 h -2.84656 l -2.16853,3.16442 h -0.0275 v -5.75874 l -2.60174,0.8576 z" />
      <path
         inkscape:connector-curvature="0"
         id="path33087"
         style="fill:#ed3338;fill-opacity:1;fill-rule:evenodd;stroke:none;stroke-width:0.35277778"
         d="m 155.80986,156.11903 c 0,-0.7306 0.70273,-1.00859 1.59421,-1.00859 0.39511,0 0.7754,0.0296 1.11159,0.0441 0,0.89253 -0.62829,1.79881 -1.62347,1.79881 -0.61349,0 -1.08233,-0.30692 -1.08233,-0.83432 z m 5.3093,2.41371 c -0.11676,-0.59937 -0.14639,-1.1998 -0.14639,-1.79917 v -2.83704 c 0,-2.32586 -1.68241,-3.15948 -3.62656,-3.15948 -1.12677,0 -2.10715,0.16122 -3.04271,0.54152 l 0.0434,1.784 c 0.73237,-0.40923 1.5801,-0.56974 2.42782,-0.56974 0.9518,0 1.7265,0.27693 1.74096,1.31551 -0.3362,-0.0582 -0.80398,-0.10231 -1.22837,-0.10231 -1.40441,0 -3.93453,0.2787 -3.93453,2.6035 0,1.65312 1.3462,2.39854 2.85221,2.39854 1.08232,0 1.81363,-0.42404 2.413,-1.37513 h 0.03 c 0,0.39582 0.0423,0.79022 0.0582,1.1998 z" />
      <path
         inkscape:connector-curvature="0"
         id="path33089"
         style="fill:#1f4578;fill-opacity:1;fill-rule:nonzero;stroke:none;stroke-width:0.35277778"
         d="m 164.51182,164.41425 c -0.002,-0.1337 0.008,-0.26741 0.0286,-0.40182 0.0187,-0.13511 0.0508,-0.26423 0.0967,-0.38629 0.0445,-0.12135 0.10583,-0.23071 0.18203,-0.32491 0.0776,-0.096 0.17428,-0.1725 0.28893,-0.22648 0.11606,-0.0557 0.25435,-0.0843 0.41345,-0.0843 0.15029,0 0.28152,0.0296 0.39229,0.0878 0.11254,0.0575 0.20849,0.13617 0.28681,0.23354 0.079,0.0984 0.14182,0.21025 0.19191,0.33231 0.0473,0.12312 0.0836,0.25083 0.10619,0.38383 0.0222,0.13052 0.0328,0.26035 0.0328,0.38629 0,0.12559 -0.0106,0.25435 -0.0328,0.38664 -0.0226,0.133 -0.0589,0.26 -0.10619,0.38383 -0.0501,0.12206 -0.11289,0.23389 -0.19191,0.33196 -0.0783,0.0977 -0.17427,0.17639 -0.28681,0.23389 -0.11077,0.0565 -0.242,0.0868 -0.39229,0.0885 -0.1591,-0.002 -0.29739,-0.0296 -0.41345,-0.0854 -0.11465,-0.054 -0.21132,-0.13018 -0.28893,-0.22543 -0.0762,-0.0949 -0.13758,-0.20532 -0.18203,-0.32738 -0.0459,-0.12135 -0.078,-0.24941 -0.0967,-0.38347 -0.0201,-0.13546 -0.0303,-0.26952 -0.0286,-0.40322 z m 2.44017,-3.31047 h -0.4205 v 2.18052 h -0.0134 c -0.0123,-0.0349 -0.0339,-0.079 -0.0695,-0.13229 -0.0342,-0.0533 -0.079,-0.11077 -0.13758,-0.1711 -0.0575,-0.06 -0.12841,-0.11606 -0.2099,-0.16933 -0.0826,-0.0533 -0.1771,-0.0967 -0.28469,-0.13053 -0.10725,-0.0335 -0.22755,-0.0515 -0.3609,-0.0526 -0.25153,0.001 -0.46602,0.0459 -0.64382,0.13299 -0.17638,0.0879 -0.32349,0.21167 -0.43462,0.37077 -0.11218,0.15911 -0.19508,0.3482 -0.248,0.56515 -0.0526,0.21732 -0.0787,0.45615 -0.0787,0.71685 0,0.25435 0.0289,0.48895 0.0882,0.70555 0.0575,0.21485 0.1457,0.40429 0.26318,0.56657 0.11782,0.16086 0.26352,0.28575 0.4399,0.37676 0.17393,0.0903 0.37889,0.13617 0.61384,0.13688 0.24307,7.1e-4 0.45332,-0.0483 0.62971,-0.14817 0.17639,-0.0995 0.32068,-0.25788 0.43285,-0.47342 h 0.0134 v 0.54116 h 0.42051 z m -6.41879,5.0158 h 0.42086 v -1.8856 c 0,-0.11501 0.01,-0.23142 0.0321,-0.34784 0.0208,-0.11712 0.055,-0.22825 0.10231,-0.33549 0.0476,-0.1076 0.10971,-0.2025 0.18873,-0.28646 0.0766,-0.085 0.17287,-0.15099 0.28646,-0.19896 0.11501,-0.0494 0.2473,-0.0748 0.4004,-0.0748 0.19262,0 0.34961,0.0444 0.46814,0.13123 0.11959,0.0861 0.20637,0.20849 0.26176,0.36513 0.0536,0.15804 0.0804,0.34466 0.079,0.55915 v 2.07363 h 0.42157 v -2.18017 c 0,-0.18768 -0.0205,-0.36266 -0.0632,-0.51999 -0.043,-0.15981 -0.11006,-0.29775 -0.20143,-0.41593 -0.0928,-0.11889 -0.21308,-0.2092 -0.3623,-0.27552 -0.14711,-0.0649 -0.32597,-0.0984 -0.53658,-0.0995 -0.17604,0.001 -0.32632,0.0233 -0.4512,0.0649 -0.12524,0.0409 -0.23001,0.0963 -0.31362,0.16404 -0.0843,0.0681 -0.1524,0.14288 -0.20779,0.2226 -0.0526,0.0801 -0.097,0.15981 -0.13088,0.23778 h -0.0134 v -0.6089 h -0.40782 c 0.0134,0.13723 0.0208,0.27199 0.0233,0.40605 0.004,0.133 0.005,0.26564 0.004,0.39687 z m -1.05621,-3.41066 h -0.42122 v 1.88595 c 0,0.11501 -0.01,0.23142 -0.0321,0.34784 -0.0212,0.11642 -0.0547,0.2286 -0.10231,0.33549 -0.048,0.1076 -0.11077,0.2032 -0.18767,0.28646 -0.0783,0.085 -0.17392,0.15063 -0.28752,0.19896 -0.11359,0.0494 -0.24729,0.0737 -0.40005,0.0755 -0.19332,-0.002 -0.34925,-0.0452 -0.46884,-0.13194 -0.11889,-0.0861 -0.20567,-0.20849 -0.26,-0.36513 -0.0554,-0.15804 -0.0815,-0.34466 -0.0808,-0.56021 v -2.07292 h -0.42051 v 2.18052 c 0,0.18874 0.0201,0.3616 0.0621,0.51999 0.0434,0.15875 0.11077,0.29775 0.2032,0.41593 0.0917,0.11818 0.21131,0.2092 0.36088,0.27552 0.14712,0.0649 0.32597,0.0984 0.53623,0.0991 0.17638,-7.2e-4 0.32632,-0.0229 0.4526,-0.0646 0.12418,-0.0409 0.2286,-0.0963 0.31256,-0.1651 0.0836,-0.0681 0.1524,-0.14182 0.20745,-0.22225 0.0533,-0.0801 0.097,-0.1591 0.13087,-0.23707 h 0.0134 v 0.60855 h 0.40781 c -0.012,-0.13794 -0.0194,-0.27235 -0.0229,-0.4057 -0.002,-0.133 -0.003,-0.26599 -0.003,-0.39723 z m -5.64446,3.41066 h 0.46145 v -2.19957 h 1.6785 v -0.40146 h -1.6785 v -1.66582 h 1.7586 v -0.40111 h -2.22005 z m -3.33057,0 h 0.42192 v -5.0158 h -0.42192 z m -1.42416,-1.51166 c 8e-4,0.0766 -0.002,0.16581 -0.0102,0.26917 -0.007,0.10478 -0.0272,0.21167 -0.0593,0.32315 -0.0335,0.11148 -0.085,0.21484 -0.15662,0.31079 -0.0734,0.097 -0.17217,0.17534 -0.29881,0.23531 -0.1256,0.06 -0.28786,0.0903 -0.48507,0.0928 -0.12983,0.001 -0.24941,-0.0198 -0.35631,-0.0607 -0.10583,-0.0402 -0.1912,-0.10583 -0.2547,-0.19579 -0.0628,-0.0903 -0.097,-0.21096 -0.0977,-0.35878 7.9e-4,-0.14922 0.0342,-0.27375 0.0956,-0.37394 0.0642,-0.0991 0.14852,-0.17851 0.25682,-0.23918 0.1083,-0.06 0.23177,-0.10619 0.3683,-0.13547 0.13758,-0.0307 0.28151,-0.0512 0.4318,-0.061 0.15028,-0.0106 0.2988,-0.0145 0.44591,-0.0138 h 0.1203 z m 0.0406,1.51166 h 0.41451 c -0.0113,-0.078 -0.0187,-0.15417 -0.0226,-0.2279 -0.005,-0.0751 -0.008,-0.15346 -0.0109,-0.23213 -7.9e-4,-0.0787 -7.9e-4,-0.16474 -7.9e-4,-0.25576 v -1.5046 c 7.9e-4,-0.29527 -0.0399,-0.53692 -0.12206,-0.72425 -0.0843,-0.18697 -0.21343,-0.32561 -0.38982,-0.41416 -0.17639,-0.0885 -0.40499,-0.13265 -0.68439,-0.13229 -0.0755,0 -0.1584,0.008 -0.248,0.019 -0.0882,0.0123 -0.17851,0.0286 -0.26776,0.0508 -0.0914,0.0222 -0.17956,0.0469 -0.26317,0.0741 -0.0847,0.0286 -0.15911,0.0582 -0.22437,0.091 v 0.40746 c 0.15699,-0.0991 0.31891,-0.17145 0.48754,-0.21626 0.16616,-0.0437 0.33796,-0.066 0.51576,-0.0642 0.18768,0 0.34008,0.0321 0.45297,0.0974 0.11394,0.0653 0.19649,0.16334 0.24871,0.2921 0.0501,0.13053 0.0744,0.2921 0.0737,0.48648 v 0.17322 h -0.0797 c -0.14887,-7.2e-4 -0.30339,0.002 -0.46179,0.009 -0.16051,0.008 -0.31891,0.0236 -0.47519,0.0466 -0.15663,0.0247 -0.3055,0.0631 -0.4445,0.11394 -0.13829,0.0515 -0.26352,0.12171 -0.37042,0.21026 -0.10759,0.0861 -0.19261,0.19826 -0.25329,0.33126 -0.0628,0.1337 -0.0942,0.29704 -0.0949,0.48648 -0.001,0.0621 0.007,0.13511 0.0233,0.21802 0.0162,0.0829 0.0483,0.16757 0.0924,0.25258 0.0455,0.0879 0.10936,0.16757 0.19297,0.2413 0.0843,0.0744 0.19333,0.13512 0.32491,0.18027 0.1337,0.0459 0.29669,0.0698 0.49001,0.0706 0.10619,0 0.21237,-0.0141 0.32067,-0.042 0.10725,-0.0261 0.21061,-0.0663 0.30904,-0.11959 0.0974,-0.0526 0.18591,-0.11854 0.26529,-0.19579 0.0776,-0.0797 0.1397,-0.16934 0.18838,-0.27164 h 0.0134 z m -3.01661,-3.41066 h -0.42086 v 1.88595 c 0,0.11501 -0.01,0.23142 -0.031,0.34784 -0.0219,0.11642 -0.0561,0.2286 -0.10194,0.33549 -0.049,0.1076 -0.11184,0.2032 -0.18873,0.28646 -0.0787,0.085 -0.17429,0.15063 -0.28752,0.19896 -0.1136,0.0494 -0.24731,0.0737 -0.40076,0.0755 -0.19261,-0.002 -0.34889,-0.0452 -0.46814,-0.13194 -0.11888,-0.0861 -0.20637,-0.20849 -0.2607,-0.36513 -0.0547,-0.15804 -0.0815,-0.34466 -0.0801,-0.56021 v -2.07292 h -0.42121 v 2.18052 c 0,0.18874 0.0208,0.3616 0.0628,0.51999 0.043,0.15875 0.11042,0.29775 0.20285,0.41593 0.0914,0.11818 0.21308,0.2092 0.36088,0.27552 0.14747,0.0649 0.32598,0.0984 0.53659,0.0991 0.17638,-7.2e-4 0.32632,-0.0229 0.45226,-0.0646 0.12453,-0.0409 0.22931,-0.0963 0.31256,-0.1651 0.0854,-0.0681 0.1524,-0.14182 0.20779,-0.22225 0.0529,-0.0801 0.097,-0.1591 0.13087,-0.23707 h 0.0134 v 0.60855 h 0.40782 c -0.012,-0.13794 -0.0201,-0.27235 -0.0233,-0.4057 -0.002,-0.133 -0.004,-0.26599 -0.004,-0.39723 z m -3.417,0 h -0.77506 v -0.96943 l -0.42121,0.14675 v 0.82268 h -0.66922 v 0.36089 h 0.66923 v 1.99355 c -0.003,0.15557 0.003,0.30233 0.0152,0.43956 0.0123,0.13794 0.043,0.25753 0.0917,0.3616 0.0476,0.10407 0.12558,0.18626 0.23142,0.24553 0.10618,0.0589 0.25118,0.0892 0.43638,0.09 0.0709,0 0.13794,-0.006 0.2032,-0.0162 0.066,-0.01 0.1256,-0.0205 0.18098,-0.0353 0.0529,-0.0148 0.0963,-0.0289 0.13123,-0.042 l -0.0268,-0.34748 c -0.0596,0.0226 -0.11818,0.0434 -0.17922,0.0575 -0.0596,0.0145 -0.12946,0.0226 -0.20849,0.0226 -0.11288,-0.002 -0.2032,-0.0268 -0.26952,-0.0773 -0.0667,-0.0505 -0.1143,-0.11819 -0.14357,-0.2032 -0.0282,-0.0836 -0.0427,-0.17816 -0.0413,-0.28153 v -2.20733 h 0.77506 z m -2.52801,0 h -0.42086 v 1.88595 c 0,0.11501 -0.0102,0.23142 -0.0314,0.34784 -0.0208,0.11642 -0.0561,0.2286 -0.1023,0.33549 -0.0476,0.1076 -0.11041,0.2032 -0.18838,0.28646 -0.0783,0.085 -0.17462,0.15063 -0.28787,0.19896 -0.11394,0.0494 -0.24553,0.0737 -0.40076,0.0755 -0.19261,-0.002 -0.34818,-0.0452 -0.46673,-0.13194 -0.11958,-0.0861 -0.20637,-0.20849 -0.26104,-0.36513 -0.0543,-0.15804 -0.0818,-0.34466 -0.0811,-0.56021 v -2.07292 h -0.42087 v 2.18052 c 0,0.18874 0.0212,0.3616 0.0646,0.51999 0.0416,0.15875 0.10972,0.29775 0.20215,0.41593 0.0914,0.11818 0.21166,0.2092 0.35948,0.27552 0.14852,0.0649 0.32737,0.0984 0.53798,0.0991 0.17533,-7.2e-4 0.32668,-0.0229 0.45121,-0.0646 0.12453,-0.0409 0.2293,-0.0963 0.31291,-0.1651 0.085,-0.0681 0.15311,-0.14182 0.20709,-0.22225 0.0543,-0.0801 0.097,-0.1591 0.13263,-0.23707 h 0.0131 v 0.60855 h 0.40781 c -0.012,-0.13794 -0.0201,-0.27235 -0.0233,-0.4057 -0.004,-0.133 -0.004,-0.26599 -0.004,-0.39723 z m -8.55909,3.41066 h 0.46143 v -4.20617 h 0.0134 l 1.75189,4.20617 h 0.39441 l 1.69897,-4.20617 h 0.0127 v 4.20617 h 0.46108 v -4.66796 h -0.66145 l -1.71203,4.10598 -1.70498,-4.10598 h -0.71543 z" />
      <path
         inkscape:connector-curvature="0"
         id="path33091"
         style="fill:#1f4578;fill-opacity:1;fill-rule:evenodd;stroke:none;stroke-width:0.35277778"
         d="m 103.82487,157.28214 c 0,-6.03074 5.68396,-10.91918 12.69648,-10.91918 7.01287,0 12.69682,4.88844 12.69682,10.91918 0,6.03144 -5.68395,10.92024 -12.69682,10.92024 -7.01252,0 -12.69648,-4.8888 -12.69648,-10.92024" />
      <path
         inkscape:connector-curvature="0"
         id="path33093"
         style="fill:#ed3338;fill-opacity:1;fill-rule:evenodd;stroke:none;stroke-width:0.35277778"
         d="m 114.98006,149.86887 2.94922,-0.97473 0.0145,15.94697 -2.97427,0.9966 z" />
      <path
         inkscape:connector-curvature="0"
         id="path33095"
         style="fill:#ffffff;fill-opacity:1;fill-rule:evenodd;stroke:none;stroke-width:0.35277778"
         d="m 116.7309,159.81438 c -1.282,1.54446 -2.52095,3.12349 -4.84188,3.12349 -3.27871,0 -4.83164,-3.16935 -4.83164,-5.81907 0,-2.54564 1.21461,-5.55942 4.4069,-5.55942 1.38536,0 2.72027,0.84737 3.51366,1.74307 l -0.002,2.16147 c -0.66322,-0.44732 -2.15089,-0.88617 -3.12209,-0.9017 -2.02494,-0.0342 -3.81105,0.84314 -3.77895,2.84233 0.0208,1.37619 1.38359,2.31246 2.74038,2.31246 2.07821,0 3.33622,-1.89829 4.3889,-3.33939 0.29316,-0.37606 1.12149,-1.48308 1.25025,-1.66017 1.16875,-1.63231 2.5213,-3.12385 4.84187,-3.12385 2.73297,0 4.2672,2.20415 4.70183,4.47287 h -1.2326 c -0.49601,-0.73554 -1.45063,-1.18569 -2.3922,-1.18569 -2.14771,0 -3.43076,1.97556 -4.50426,3.43006 0,0 -0.83573,1.13947 -1.13806,1.50354 z m 9.33874,-1.43157 c -0.27694,2.28141 -1.55575,4.5847 -4.35011,4.58964 -1.63019,0.003 -2.90513,-1.11408 -3.78813,-2.48038 v -1.58221 c 1.1049,0.54857 2.13677,1.13559 3.38914,1.15464 1.54234,0.0229 2.93687,-0.5708 3.51367,-1.68169 z" />
    </g>
  </g>
</svg>
